<svg xmlns="http://www.w3.org/2000/svg" xmlns:xlink="http://www.w3.org/1999/xlink" id="Layer_1" x="0px" y="0px" width="100%" viewBox="0 0 58 71" xml:space="preserve"><path fill="#007DFB" opacity="1.000000" stroke="none" d="M59.000000,34.000000  C59.000000,35.066669 59.000000,36.133339 58.663086,37.719376  C51.884117,49.492500 45.442059,60.746250 39.000000,72.000000  C27.166668,72.000000 15.333228,72.020172 3.500234,71.956963  C2.665142,71.952507 1.833334,71.333336 1.333998,70.384186  C7.453526,59.793781 13.278026,49.841358 18.980564,39.819538  C19.791456,38.394447 20.930145,36.113873 20.361950,35.105854  C14.085296,23.970613 7.501009,13.008778 1.000000,2.000000  C1.820417,1.666667 2.639320,1.047354 3.461478,1.043002  C15.328290,0.980187 27.195539,1.000000 39.537312,1.367857  C46.341293,12.490476 52.670647,23.245239 59.000000,34.000000 z"></path><path fill="#FFFFFF" opacity="1.000000" stroke="none" d="M1.000000,2.468657  C7.501009,13.008778 14.085296,23.970613 20.361950,35.105854  C20.930145,36.113873 19.791456,38.394447 18.980564,39.819538  C13.278026,49.841358 7.453526,59.793781 1.333999,69.884186  C1.000000,47.645771 1.000000,25.291544 1.000000,2.468657 z"></path><path fill="#FFFFFF" opacity="1.000000" stroke="none" d="M39.469044,72.000000  C45.442059,60.746250 51.884117,49.492500 58.663086,38.119373  C59.000000,49.240528 59.000000,60.481060 59.000000,72.000000  C52.648727,72.000000 46.293407,72.000000 39.469044,72.000000 z"></path><path fill="#FFFFFF" opacity="1.000000" stroke="none" d="M59.000000,33.531342  C52.670647,23.245239 46.341293,12.490476 40.005970,1.367857  C46.279552,1.000000 52.559109,1.000000 59.000000,1.000000  C59.000000,11.687125 59.000000,22.374905 59.000000,33.531342 z"></path></svg>