<svg xmlns="http://www.w3.org/2000/svg" width="58" height="71"><path d="M0 0 C12.87 0 25.74 0 39 0 C46.8125 13.6875 46.8125 13.6875 49.26098633 17.97924805 C50.22427856 19.66594604 50.22427856 19.66594604 51.20703125 21.38671875 C51.5371521 21.96570923 51.86727295 22.54469971 52.20739746 23.14123535 C53.66029977 25.68394967 55.10426435 28.14706776 56.79956055 30.53833008 C58.42251647 33.86642944 58.031422 35.47203635 57 39 C55.46533203 42.18798828 55.46533203 42.18798828 53.5078125 45.5703125 C53.16120575 46.17382538 52.814599 46.77733826 52.45748901 47.3991394 C51.72707299 48.66716493 50.99230303 49.93269145 50.25341797 51.19580078 C49.12710279 53.12140497 48.01362718 55.05397041 46.90234375 56.98828125 C44.96379622 60.34384642 43.02372184 63.69471622 41 67 C40.60498291 67.78197754 40.20996582 68.56395508 39.80297852 69.36962891 C36.80886284 72.07710412 33.21895423 71.48741774 29.39453125 71.390625 C28.55532639 71.38496521 27.71612152 71.37930542 26.85148621 71.37347412 C24.17124367 71.35108406 21.49233837 71.30088453 18.8125 71.25 C16.99546202 71.22993832 15.17840308 71.21168697 13.36132812 71.1953125 C8.90703688 71.15121086 4.45374515 71.08216659 0 71 C1.42485271 67.20501375 3.16463481 63.74964336 5.15234375 60.21875 C5.76400391 59.12949219 6.37566406 58.04023437 7.00585938 56.91796875 C7.96202148 55.22607422 7.96202148 55.22607422 8.9375 53.5 C9.57107422 52.37207031 10.20464844 51.24414062 10.85742188 50.08203125 C15.85247876 41.20543174 15.85247876 41.20543174 17.83032227 38.45117188 C19.29550152 36.05304157 19.29550152 36.05304157 18.36865234 33.51489258 C17.91699707 32.68497803 17.4653418 31.85506348 17 31 C16.55221191 30.15783936 16.10442383 29.31567871 15.64306641 28.44799805 C14.88002197 27.11828979 14.88002197 27.11828979 14.1015625 25.76171875 C13.53953125 24.77623047 12.9775 23.79074219 12.3984375 22.77539062 C11.81320312 21.75638672 11.22796875 20.73738281 10.625 19.6875 C9.46941867 17.67168122 8.31573425 15.65477369 7.1640625 13.63671875 C6.65311035 12.74686279 6.1421582 11.85700684 5.61572266 10.94018555 C3.6415809 7.34777256 1.83317576 3.66635151 0 0 Z " fill="#007DFB" transform="translate(0,0)"></path></svg>