<?xml version="1.0" encoding="UTF-8"?>
<svg id="svg1" xmlns="http://www.w3.org/2000/svg" viewBox="0 0 400 400">
  <path id="svgID_1_-4" data-name="svgID 1 -4" d="M155.07,155.09c-11.49,11.49-18.59,27.35-18.59,44.92s7.1,33.44,18.59,44.91c11.49,11.49,27.4,18.63,44.92,18.63s33.43-7.15,44.93-18.63c11.49-11.48,18.59-27.35,18.59-44.91s-7.1-33.43-18.59-44.92c-11.49-11.51-27.4-18.63-44.93-18.63-17.52-.01-33.41,7.11-44.92,18.63"/>
  <path id="svgID_2_-2" data-name="svgID 2 -2" d="M183.06,36.56l-58.07,33.54-58.07,33.54c-10.78,6.22-16.93,16.89-16.93,29.3v134.13c0,12.43,6.15,23.1,16.93,29.31l58.07,33.53,58.07,33.54c10.76,6.23,23.1,6.23,33.87,0l58.06-33.54,49.08-28.33c1.25-.75,1.98-1.97,1.98-3.44s-.75-2.69-1.99-3.42l-24.47-14.06c-1.91-1.08-2.56-3.5-1.51-5.39l1.56-2.74-15.84-9.02c-2.89,3.82-6.07,7.47-9.46,10.84-19.01,19.05-45.33,30.81-74.38,30.81s-55.33-11.76-74.38-30.81c-19.02-19.03-30.81-45.33-30.81-74.38s11.79-55.34,30.81-74.39c19.03-19.04,45.33-30.83,74.38-30.83,29.04.02,55.34,11.79,74.38,30.85,19.04,19.02,30.81,45.32,30.81,74.37,0,14.05-2.74,27.45-7.75,39.7l15.83,9.01,1.56-2.76c1.08-1.91,3.5-2.55,5.4-1.5,8.01,4.56,15.91,9.03,23.86,13.62,1.26.7,2.69.7,3.96-.05,1.25-.7,1.96-1.96,1.96-3.38l.02-54.64v-67.05c0-12.41-6.16-23.09-16.94-29.3l-58.08-33.55-58.05-33.54c-5.39-3.07-11.17-4.61-16.93-4.61-5.78.01-11.56,1.55-16.94,4.65"/>
</svg>