<svg xmlns="http://www.w3.org/2000/svg" viewBox="0 0 88.74 71.31"><path d="M35.65,588.27h27.5c25.46,0,40.24,14.67,40.24,35.25v.2c0,20.58-15,35.86-40.65,35.86H35.65Zm27.81,53.78c11.81,0,19.65-6.51,19.65-18v-.2c0-11.42-7.84-18-19.65-18H55.41v36.26Z" transform="translate(-35.65 -588.27)" fill="#a8abad"/><path d="M121.69,609.94a33.84,33.84,0,0,0-7.56-11.19,36.51,36.51,0,0,0-11.53-7.56A37.53,37.53,0,0,0,88,588.4a43.24,43.24,0,0,0-5.4.34,36.53,36.53,0,0,1,20.76,10,33.84,33.84,0,0,1,7.56,11.19,35.25,35.25,0,0,1,2.7,13.79v.2a34.79,34.79,0,0,1-2.75,13.79,35.21,35.21,0,0,1-19.19,18.94,36.48,36.48,0,0,1-9.27,2.45,42.94,42.94,0,0,0,5.39.35,37.89,37.89,0,0,0,14.67-2.8,35.13,35.13,0,0,0,19.19-18.94,34.79,34.79,0,0,0,2.75-13.79v-.2A35.25,35.25,0,0,0,121.69,609.94Z" transform="translate(-35.65 -588.27)" fill="#a8abad" /></svg>