<?xml version="1.0" encoding="utf-8"?>
<!-- Generator: Adobe Illustrator 28.2.0, SVG Export Plug-In . SVG Version: 6.00 Build 0)  -->
<svg version="1.1" id="Livello_2_00000157308354056647767460000000133046191731774358_"
	 xmlns="http://www.w3.org/2000/svg" xmlns:xlink="http://www.w3.org/1999/xlink" x="0px" y="0px" viewBox="0 0 759.3 72.6"
	 style="enable-background:new 0 0 759.3 72.6;" xml:space="preserve">
<style type="text/css">
	.st0{fill:#FFFFFF;}
	.st1{opacity:0.6;fill:#FFFFFF;enable-background:new    ;}
	.st2{opacity:0.4;fill:#FFFFFF;enable-background:new    ;}
	.st3{opacity:0.2;fill:#FFFFFF;enable-background:new    ;}
</style>
<g id="Layer_1">
	<path class="st0" d="M0.9,2h26.5c24.5,0,38.7,14.1,38.7,33.9v0.2c0,19.8-14.4,34.5-39.1,34.5H0.9V2z M27.7,53.7
		c11.4,0,18.9-6.3,18.9-17.3v-0.2c0-11-7.5-17.3-18.9-17.3h-7.7v34.9H27.7z"/>
	<path class="st0" d="M89.2,44.9L63.2,2h21.6l14.1,25l14.2-25h21.3l-26,42.6v26H89.2L89.2,44.9L89.2,44.9z"/>
	<path class="st0" d="M140.2,2h17.7l28.2,36.2V2H205v68.6h-16.7L159,32.9v37.6h-18.8L140.2,2L140.2,2z"/>
	<path class="st0" d="M240.8,1.5h18.3l29.2,69.1h-20.4l-5-12.3h-26.5l-4.9,12.3h-20L240.8,1.5z M257.4,43.5L249.8,24L242,43.5H257.4
		z"/>
	<path class="st0" d="M294.9,2H315l16.4,26.5L347.7,2h20.1v68.6h-18.9V31.2L331.3,58h-0.4l-17.4-26.6v39.2h-18.6L294.9,2L294.9,2z"
		/>
	<path class="st0" d="M380.2,2h19.1v68.6h-19.1L380.2,2L380.2,2z"/>
	<path class="st0" d="M409.5,36.5v-0.2c0-20,15.4-35.7,36.1-35.7c14,0,23,5.9,29.1,14.3L460.5,26c-3.9-4.9-8.4-8-15-8
		c-9.6,0-16.4,8.1-16.4,18.1v0.2c0,10.3,6.8,18.3,16.4,18.3c7.1,0,11.4-3.3,15.5-8.3l14.3,10.2c-6.5,8.9-15.2,15.5-30.4,15.5
		C425.3,71.9,409.5,56.9,409.5,36.5L409.5,36.5z"/>
	<path class="st1" d="M521.8,36.5v-0.2c0-19.7,15.9-35.7,37-35.7s36.8,15.8,36.8,35.5v0.2c0,19.7-15.9,35.7-37,35.7
		S521.8,56.2,521.8,36.5z M576.3,36.5v-0.2c0-9.9-7.2-18.5-17.6-18.5s-17.3,8.4-17.3,18.3v0.2c0,9.9,7.2,18.5,17.5,18.5
		S576.3,46.3,576.3,36.5L576.3,36.5z"/>
	<path class="st2" d="M603.2,36.5v-0.2c0-19.7,15.9-35.7,37-35.7S677,16.4,677,36.1v0.2c0,19.7-15.9,35.7-37,35.7
		S603.2,56.2,603.2,36.5z M657.6,36.5v-0.2c0-9.9-7.2-18.5-17.6-18.5s-17.3,8.4-17.3,18.3v0.2c0,9.9,7.2,18.5,17.5,18.5
		S657.6,46.3,657.6,36.5L657.6,36.5z"/>
	<path class="st3" d="M684.5,36.5v-0.2c0-19.7,15.9-35.7,37-35.7s36.8,15.8,36.8,35.5v0.2c0,19.7-15.9,35.7-37,35.7
		S684.5,56.2,684.5,36.5L684.5,36.5z M739,36.5v-0.2c0-9.9-7.2-18.5-17.6-18.5S704,26.2,704,36.1v0.2c0,9.9,7.2,18.5,17.5,18.5
		S739,46.3,739,36.5L739,36.5z"/>
	<circle class="st1" cx="497" cy="36.3" r="12"/>
</g>
</svg>
